<svg width="856.97376" height="510.42687" xmlns="http://www.w3.org/2000/svg">
 <title>junior_soccer</title>

 <g>
  <title>background</title>
  <rect x="-1" y="-1" width="858.97376" height="512.42687" id="canvas_background" fill="none"/>
 </g>
 <g>
  <title>Layer 1</title>
  <path d="m414,505.06525c3.11869,-3.93878 7.23183,3.896 11.346,1l-22.79844,0c4.64132,2.57672 8.26332,-5.20941 11.45244,-1z" fill="none" id="svg_1"/>
  <path d="m488.95647,506.06525l-3.93013,0c0.84434,0.59319 1.69127,1.18363 2.49781,1.82471c0.46032,-0.62218 0.9518,-1.21897 1.43232,-1.82471z" fill="none" id="svg_2"/>
  <path d="m283.34394,180.23878s-38.53465,-12.00334 -32.61918,7.74526s38.373,9.77313 38.373,9.77313l-5.75382,-17.51839z" fill="#ffb8b8" id="svg_7"/>
  <path d="m430.64633,106.11384s-19.74846,-26.98668 -38.93509,1.02891c-19.22436,28.07069 -37.09782,51.11509 -37.09782,51.11509l-47.74568,15.5676l-27.62234,2.45078l7.60928,24.55807l80.31347,-11.65108s89.4142,-53.11402 63.47818,-83.06937z" fill="#2f2e41" id="svg_8"/>
  <path d="m409,305.06525s-2,37 3,52s10,71 10,71l28,0s13,-49 -3,-71c0,0 -5,-29 9,-43l-47,-9z" fill="#ffb8b8" id="svg_10"/>
  <path d="m402.5,202.56525s-65,41 -65,54l52,43l18,-20l-2,30l56,11s20,-76 19,-79s-4,-47 -4,-47l-74,8z" fill="#2f2e41" id="svg_11"/>
  <path d="m452,423.56525l-31.68,-2s1.92,33 -1.92,44s-1.92,15 -1.92,15l27.84,2l7.68,-59z" fill="#6c63ff" id="svg_14"/>
  <path d="m452.38978,496.49977c-0.144,-4.12059 -4.48845,-23.5901 -5.46628,-20.66175s-17.6687,4.48236 -22.28579,-2.6368c0,0 -6.36463,-8.5142 -10.75824,-2.29357s-12.7638,16.70585 -12.7638,16.70585s-29.11715,7.08461 -26.6646,14.76479c0.496,1.55334 2.56373,2.60468 5.54563,3.29413a1.63368,1.63368 0 0 0 -0.22914,0.54438l-0.14776,0.69311a1.6457,1.6457 0 0 0 1.26638,1.95265l0.693,0.14775a1.64569,1.64569 0 0 0 1.95265,-1.26638l0.14777,-0.6931a1.628,1.628 0 0 0 -0.02287,-0.75482c0.81484,0.10045 1.66438,0.18477 2.54143,0.25449a1.63027,1.63027 0 0 0 -0.56252,0.91734l-0.14776,0.6931a1.64571,1.64571 0 0 0 1.26638,1.95266l0.693,0.14775a1.64572,1.64572 0 0 0 1.95266,-1.26638l0.14776,-0.69311a1.63843,1.63843 0 0 0 -0.5337,-1.57865c2.33123,0.10408 4.78256,0.12724 7.2317,0.0954a1.63059,1.63059 0 0 0 -0.41286,0.77825l-0.14776,0.6931a1.64571,1.64571 0 0 0 1.26638,1.95266l0.693,0.14775a1.64571,1.64571 0 0 0 1.95265,-1.26639l0.14777,-0.6931a1.64389,1.64389 0 0 0 -0.6437,-1.67275c1.84324,-0.05356 3.65555,-0.13268 5.38424,-0.22588a1.63057,1.63057 0 0 0 -0.41145,0.77661l-0.14776,0.69311a1.64571,1.64571 0 0 0 1.26638,1.95265l0.693,0.14775a1.64569,1.64569 0 0 0 1.95265,-1.26638l0.14777,-0.6931a1.64008,1.64008 0 0 0 -0.8058,-1.77041c6.08854,-0.39344 10.57663,-0.89656 10.57663,-0.89656s5.24366,-0.73327 11.64569,-1.86918l-0.12731,0.59718a1.64572,1.64572 0 0 0 1.26638,1.95266l0.693,0.14775a1.64571,1.64571 0 0 0 1.95265,-1.26639l0.14777,-0.6931a1.63611,1.63611 0 0 0 -0.3533,-1.39535c1.289,-0.245 2.59117,-0.50195 3.88241,-0.77029l-0.11729,0.5502a1.64569,1.64569 0 0 0 1.26638,1.95265l0.693,0.14776a1.64572,1.64572 0 0 0 1.95266,-1.26639l0.14776,-0.6931a1.64159,1.64159 0 0 0 -0.408,-1.46437c1.40321,-0.32317 2.75906,-0.656 4.01668,-0.997c-0.0162,0.05109 -0.03765,0.09932 -0.04906,0.1528l-0.14776,0.69311a1.64571,1.64571 0 0 0 1.26638,1.95265l0.69305,0.14775a1.64571,1.64571 0 0 0 1.95266,-1.26638l0.14776,-0.6931a1.64606,1.64606 0 0 0 -0.9518,-1.85164c3.07342,-1.00501 5.09812,-2.0461 5.06325,-3.04437z" fill="#2f2e41" id="svg_15"/>
  <circle cx="402.5" cy="43.56525" r="29" fill="#ffb8b8" id="svg_16"/>
  <path d="m428.5,40.56525s16,20 24,19l-35,27s-4,-17 -9,-19s20,-27 20,-27z" fill="#ffb8b8" id="svg_17"/>
  <path d="m491,189.06525s-0.00243,-110.34632 -18.51312,-119.85181c-18.5,-9.5 -30.73755,-14.92211 -30.73755,-14.92211l0,0a25.95764,25.95764 0 0 1 -9.98016,18.56709c-6.134,4.7357 -12.24529,8.66252 -15.65918,8.67509l-0.11,-0.46827l-0.41644,-1.18884l-10.08356,15.68884s-9,2 -12,8c-1.623,3.246 6.03052,35.9231 1.5,65.5c-3.84375,25.09363 -20.041,47.746 -20.5,50.5c-0.77594,4.65546 18.91034,-7.54187 27.77539,-13.24408c0.13123,0.14637 0.22461,0.24408 0.22461,0.24408s-5,2 5,-1c5.66608,-1.69983 13.57715,-1.79406 19.37207,-1.55682c-0.007,1.73737 0.034,3.11774 0.12793,4.05682c1,10 51,24 58,21s6.00001,-39.99999 6.00001,-39.99999z" fill="#2f2e41" id="svg_18"/>
  <path d="m456,227.06525s-30,27 -10,32s28,-28 28,-28l-18,-4z" fill="#ffb8b8" id="svg_19"/>
  <path d="m421,297.06525s14,-13 22,-6s13,12 13,12s-23,-14 -35,-6z" fill="#6c63ff" id="svg_20"/>
  <path d="m424.63641,452.61366s7.89087,-7.32724 12.39994,-3.3818s7.32725,6.76361 7.32725,6.76361s-12.96359,-7.89088 -19.72719,-3.38181z" fill="#2f2e41" id="svg_21"/>
  <path d="m483.4437,82.93409c-9.91276,-19.92594 -40.07425,-9.0584 -35.17326,12.65073q0.10959,0.48545 0.22956,0.98043a197.351,197.351 0 0 0 25,58l-11,49l-12,25l25,6l31,-75s-8.55074,-47.4731 -23.0563,-76.63116z" fill="#2f2e41" id="svg_23"/>
  <polygon points="469 156.065 450 228.065 466 194.065 469 156.065" opacity="0.2" id="svg_24"/>
  <path d="m420.71288,9.76134s-16.03027,-16.87649 -32.16549,-6.24832s-23.78951,20.95242 -22.20751,28.14099s6.26419,17.18755 6.26419,17.18755s-2.90988,-14.89267 10.4505,-15.99474s31.81891,-9.94376 31.81891,-9.94376l12.48573,26.6639s1.76517,-6.1789 6.65887,-4.40663s1.10041,-33.42227 -13.3052,-35.39899z" fill="#2f2e41" id="svg_25"/>
 </g>
</svg>