<svg width="856.97376" height="510.42687" xmlns="http://www.w3.org/2000/svg">
 <title>junior_soccer</title>

 <g>
  <title>background</title>
  <rect x="-1" y="-1" width="430.486002" height="257.212912" id="canvas_background" fill="none"/>
 </g>
 <g>
  <title>Layer 1</title>
  <path d="m386.499997,97.56525s-30,21 -28,40s15,71 15,71l27,-4s3,-40 -7,-55l48,-27l-55,-25z" fill="#ffb8b8" id="svg_9"/>
  <path d="m400.499997,198.56525l-29,6l5.15248,21.18242a75.64089,75.64089 0 0 1 0.84752,31.81757l0,0s30,8 30,4s-7,-20 -5,-31s-2,-31.99999 -2,-31.99999z" fill="#6c63ff" id="svg_12"/>
  <path d="m415.499997,273.56525c-1,-4 -9.30847,-22.13574 -9.65424,-19.06787s-16.34576,8.06787 -22.34576,2.06787c0,0 -8,-7 -11,0s-9,19 -9,19s-27,13 -23,20c0.809,1.41578 3.05048,2.01288 6.1106,2.06543a1.63348,1.63348 0 0 0 -0.1106,0.5802l0,0.70868a1.64571,1.64571 0 0 0 1.64569,1.64569l0.70862,0a1.64571,1.64571 0 0 0 1.64569,-1.64569l0,-0.70868a1.62794,1.62794 0 0 0 -0.17975,-0.73346c0.81787,-0.07165 1.66632,-0.16632 2.53864,-0.281a1.63022,1.63022 0 0 0 -0.35889,1.01446l0,0.70868a1.64571,1.64571 0 0 0 1.64569,1.64569l0.70862,0a1.64571,1.64571 0 0 0 1.64569,-1.64569l0,-0.70868a1.63844,1.63844 0 0 0 -0.85113,-1.43267c2.30169,-0.38428 4.704,-0.87275 7.09265,-1.41456a1.63059,1.63059 0 0 0 -0.24152,0.84723l0,0.70868a1.64571,1.64571 0 0 0 1.64569,1.64569l0.70862,0a1.64571,1.64571 0 0 0 1.64569,-1.64569l0,-0.70868a1.64389,1.64389 0 0 0 -0.97833,-1.50177c1.79156,-0.4367 3.54754,-0.892 5.21881,-1.34356a1.6305,1.6305 0 0 0 -0.24048,0.84533l0,0.70868a1.64571,1.64571 0 0 0 1.64569,1.64569l0.70862,0a1.64571,1.64571 0 0 0 1.64569,-1.64569l0,-0.70868a1.64,1.64 0 0 0 -1.15723,-1.56347c5.87268,-1.6543 10.15723,-3.08216 10.15723,-3.08216s4.97553,-1.81048 11,-4.25628l0,0.61059a1.64571,1.64571 0 0 0 1.64569,1.64569l0.70862,0a1.64571,1.64571 0 0 0 1.64569,-1.64569l0,-0.70868a1.63608,1.63608 0 0 0 -0.63647,-1.291c1.20953,-0.50842 2.42956,-1.03119 3.63647,-1.56287l0,0.56256a1.64571,1.64571 0 0 0 1.64569,1.64569l0.70862,0a1.64571,1.64571 0 0 0 1.64569,-1.64569l0,-0.70868a1.64158,1.64158 0 0 0 -0.70441,-1.3471c1.305,-0.60865 2.56165,-1.21686 3.72052,-1.81256c-0.00518,0.05334 -0.01611,0.105 -0.01611,0.15966l0,0.70868a1.64571,1.64571 0 0 0 1.64569,1.64569l0.70862,0a1.64571,1.64571 0 0 0 1.64569,-1.64569l0,-0.70868a1.646,1.646 0 0 0 -1.31695,-1.61248c2.79608,-1.62373 4.5592,-3.0641 4.31695,-4.03316z" fill="#2f2e41" id="svg_13"/>
  <path d="m380.233127,225.45903s5.41684,-9.30656 10.879,-6.84419s8.9785,4.33837 8.9785,4.33837s-14.69895,-3.77649 -19.8575,2.50582z" fill="#2f2e41" id="svg_22"/>
 </g>
</svg>