<svg width="974.96699" height="773.95792" xmlns="http://www.w3.org/2000/svg">
 <title>road sign</title>

 <g>
  <title>background</title>
  <rect fill="none" id="canvas_background" height="402" width="582" y="-1" x="-1"/>
 </g>
 <g>
  <title>Layer 1</title>
  <circle id="svg_1" fill="#ff6584" r="64" cy="99.95792" cx="520.96699"/>
  <path id="svg_2" fill="#f2f2f2" d="m328.26312,407.971588c0,123.61 -73.48421,166.77 -164.13156,166.77s-164.13156,-43.16 -164.13156,-166.77s164.13156,-280.86149 164.13156,-280.86149s164.13156,157.25146 164.13156,280.86149z"/>
  <polygon id="svg_3" fill="#3f3d56" points="158.153 555.833 159.833 452.383 229.79 324.4 160.097 436.154 160.852 389.639 209.067 297.044 161.052 377.329 161.052 377.329 162.412 293.669 214.04 219.952 162.625 280.514 163.474 127.11 158.138 330.188 158.576 321.811 106.085 241.464 157.735 337.893 152.844 431.327 152.698 428.847 92.185 344.294 152.515 437.608 151.903 449.293 151.794 449.469 151.844 450.428 139.435 687.478 156.014 687.478 158.003 565.037 218.185 471.952 158.153 555.833"/>
  <path id="svg_4" fill="#f2f2f2" d="m814.64714,343.121728c0,151.01141 -89.77388,203.739 -200.51558,203.739s-200.51559,-52.72759 -200.51559,-203.739s200.51559,-343.12177 200.51559,-343.12177s200.51558,192.11037 200.51558,343.12177z"/>
  <polygon id="svg_5" fill="#3f3d56" points="606.827 523.761 608.88 397.378 694.345 241.024 609.202 377.552 610.126 320.725 669.028 207.605 610.37 305.687 610.37 305.687 612.03 203.481 675.104 113.423 612.291 187.409 613.329 0 606.809 248.096 607.345 237.861 543.218 139.704 606.317 257.508 600.341 371.654 600.164 368.625 526.236 265.329 599.94 379.328 599.192 393.603 599.059 393.818 599.12 394.99 583.96 684.589 604.214 684.589 606.645 535.005 680.167 421.285 606.827 523.761"/>
  <ellipse id="svg_6" fill="#3f3d56" ry="11" rx="308" cy="684.95792" cx="399.96699"/>
  <ellipse id="svg_7" fill="#3f3d56" ry="13.5" rx="142" cy="760.45792" cx="832.96699"/>
  <rect id="svg_8" fill="#2f2e41" height="338" width="36" y="346.95792" x="381.96699"/>
  <polygon id="svg_9" fill="#3f3d56" points="564.967 423.958 343.967 423.958 343.967 361.958 564.967 361.958 628.967 392.958 564.967 423.958"/>
  <polygon id="svg_10" opacity="0.1" points="564.967 418.958 343.967 418.958 343.967 423.958 564.967 423.958 628.967 392.958 623.806 390.458 564.967 418.958"/>
  <polygon id="svg_11" fill="#3f3d56" points="235.967 505.958 456.967 505.958 456.967 443.958 235.967 443.958 171.967 474.958 235.967 505.958"/>
  <polygon id="svg_12" opacity="0.1" points="177.128 472.458 171.967 474.958 235.967 505.958 456.967 505.958 456.967 500.958 235.967 500.958 177.128 472.458"/>
  <rect id="svg_13" fill="#6c63ff" height="38" width="38" y="373.95792" x="467.96699"/>
  <circle id="svg_14" fill="#6c63ff" r="19" cy="474.95792" cx="314.96699"/>
  <circle id="svg_15" fill="#2f2e41" r="11" cy="390.95792" cx="399.96699"/>
  <circle id="svg_16" fill="#2f2e41" r="11" cy="472.95792" cx="399.96699"/>
  <path id="svg_17" fill="#6c63ff" d="m325.96698,647.294038c0,22.46856 -13.35643,30.31375 -29.83387,30.31375q-0.57257,0 -1.14331,-0.01273c-0.76345,-0.01636 -1.51962,-0.05271 -2.26669,-0.10361c-14.87057,-1.05244 -26.42387,-9.30115 -26.42387,-30.19741c0,-21.62514 27.63446,-48.91242 29.71026,-50.93189l0.00364,-0.00363c0.08,-0.07816 0.12,-0.11633 0.12,-0.11633s29.83384,28.58329 29.83384,51.05185z"/>
  <path id="svg_18" fill="#3f3d56" d="m295.04613,674.170508l10.91162,-15.24683l-10.93889,16.92094l-0.02906,1.75044c-0.76345,-0.01636 -1.51962,-0.05271 -2.26669,-0.10361l1.17607,-22.47946l-0.0091,-0.1745l0.02,-0.03272l0.11088,-2.12307l-10.9662,-16.96274l11.00073,15.37043l0.02548,0.45079l0.88883,-16.98456l-9.38839,-17.52807l9.50291,14.547l0.9252,-35.21244l0.00364,-0.12l0,0.11633l-0.1545,27.76715l9.34661,-11.008l-9.38478,13.40017l-0.2472,15.20685l8.72677,-14.59429l-8.76312,16.83189l-0.13814,8.4541l12.66934,-20.31277l-12.7166,23.2629l-0.30541,18.80407z"/>
 </g>
</svg>